<?xml version="1.0" encoding="UTF-8" standalone="no"?>
<svg
   xmlns:dc="http://purl.org/dc/elements/1.1/"
   xmlns:cc="http://creativecommons.org/ns#"
   xmlns:rdf="http://www.w3.org/1999/02/22-rdf-syntax-ns#"
   xmlns:svg="http://www.w3.org/2000/svg"
   xmlns="http://www.w3.org/2000/svg"
   xmlns:sodipodi="http://sodipodi.sourceforge.net/DTD/sodipodi-0.dtd"
   xmlns:inkscape="http://www.inkscape.org/namespaces/inkscape"
   height="30pt"
   viewBox="-23 -21 30 30.029327"
   width="30pt"
   id="svg2"
   version="1.1"
   inkscape:version="0.91 r13725"
   sodipodi:docname="whatsapp_icon_border.svg">
  <metadata
     id="metadata10">
    <rdf:RDF>
      <cc:Work
         rdf:about="">
        <dc:format>image/svg+xml</dc:format>
        <dc:type
           rdf:resource="http://purl.org/dc/dcmitype/StillImage" />
        <dc:title></dc:title>
      </cc:Work>
    </rdf:RDF>
  </metadata>
  <defs
     id="defs8" />
  <sodipodi:namedview
     pagecolor="#ffffff"
     bordercolor="#666666"
     borderopacity="1"
     objecttolerance="10"
     gridtolerance="10"
     guidetolerance="10"
     inkscape:pageopacity="0"
     inkscape:pageshadow="2"
     inkscape:window-width="1600"
     inkscape:window-height="876"
     id="namedview6"
     showgrid="false"
     inkscape:zoom="6.2640122"
     inkscape:cx="43.713117"
     inkscape:cy="14.882423"
     inkscape:window-x="0"
     inkscape:window-y="24"
     inkscape:window-maximized="1"
     inkscape:current-layer="svg2" />
  <path
     d="m 0.5115544,-14.505866 c -2.258314,-2.25015 -5.261689,-3.48988 -8.46131,-3.4912 -6.5931324,0 -11.9589844,5.34003 -11.9616364,11.9033802 -8.84e-4,2.09809 0.549845,4.14618 1.596643,5.95145999 l -1.696977,6.16862001 6.341047,-1.65542 c 1.747217,0.94853 3.7142534,1.44839 5.7160614,1.44897 l 0.005,0 c 6.592396,0 11.958838,-5.34047001 11.961342,-11.90411 0.0013,-3.18094 -1.241719,-6.1717002 -3.500179,-8.4217002 z m -8.46131,18.3154002 -0.0041,0 c -1.783903,-7.4e-4 -3.5334774,-0.47786 -5.0601374,-1.37918 l -0.36288,-0.21452 -3.762874,0.98241 1.004366,-3.65118001 -0.236469,-0.37434 c -0.995231,-1.57535999 -1.520766,-3.39618999 -1.519882,-5.26568999 0.0021,-5.4552702 4.462114,-9.8935402 9.9459794,-9.8935402 2.655522,8.8e-4 5.151778,1.03137 7.028795,2.90161 1.877017,1.87024 2.910113,4.3561602 2.909229,7.0000002 -0.0024,5.45571999 -4.462114,9.89443 -9.942002,9.89443 z m 5.453368,-7.41041 c -0.298791,-0.14897 -1.768286,-0.86834 -2.042324,-0.96775 -0.273744,-0.0992 -0.473233,-0.14867 -0.672279,0.14898 -0.199341,0.29766 -0.772022,0.96774 -0.946464,1.16613 -0.174442,0.19854 -0.348589,0.22346 -0.647527,0.0744 -0.298938,-0.14882 -1.261903,-0.46304 -2.403583,-1.47639 -0.8884164,-0.78871 -1.4882064,-1.76275 -1.6626484,-2.0604 -0.174147,-0.29795 -0.0015,-0.44341 0.131126,-0.60704 0.323542,-0.39986 0.647526,-0.81907 0.7471234,-1.01745 0.09974,-0.19854 0.0498,-0.37229 -0.02505,-0.52112 -0.07455,-0.14882 -0.672278,-1.6129002 -0.92127,-2.2086502 -0.242804,-0.57977 -0.488997,-0.50147 -0.672573,-0.51055 -0.174147,-0.009 -0.373488,-0.0104 -0.572829,-0.0104 -0.199194,0 -0.523031,0.0743 -0.797069,0.37229 -0.273891,0.2978 -1.045914,1.01731 -1.045914,2.4813802 0,1.46408 1.07096,2.87845 1.220356,3.07697 0.149395,0.19854 2.107592,3.20294 5.1056628,4.49121 0.71309,0.30673999 1.269712,0.48957999 1.703901,0.62667999 0.716037,0.2264 1.367394,0.19443 1.882469,0.1179 0.574302,-0.0855 1.768138,-0.71964999 2.017424,-1.41436999 0.248992,-0.69487 0.248992,-1.29033 0.174147,-1.41452 -0.07455,-0.12404 -0.273891,-0.19839 -0.572681,-0.34736 z m 0,0"
     id="path4"
     style="fill:#ffffff;fill-rule:evenodd"
     inkscape:connector-curvature="0" />
</svg>
